<?xml version="1.0" encoding="UTF-8" standalone="no"?>
<!-- Created with Inkscape (http://www.inkscape.org/) -->

<svg
   id="svg2"
   sodipodi:docname="theme.aagi-hex.svg"
   viewBox="0 0 41.480312 48.000027"
   version="1.1"
   inkscape:version="1.3.2 (091e20e, 2023-11-25)"
   width="4.3899999cm"
   height="5.0800028cm"
   inkscape:export-filename="../../man/figures/logo.png"
   inkscape:export-xdpi="90.709999"
   inkscape:export-ydpi="90.709999"
   xml:space="preserve"
   xmlns:inkscape="http://www.inkscape.org/namespaces/inkscape"
   xmlns:sodipodi="http://sodipodi.sourceforge.net/DTD/sodipodi-0.dtd"
   xmlns="http://www.w3.org/2000/svg"
   xmlns:svg="http://www.w3.org/2000/svg"
   xmlns:rdf="http://www.w3.org/1999/02/22-rdf-syntax-ns#"
   xmlns:cc="http://creativecommons.org/ns#"
   xmlns:dc="http://purl.org/dc/elements/1.1/"><title
     id="title319">AAGIThemes</title><defs
     id="defs4"><style
       id="style22186">.cls-1{fill:none;}.cls-2{fill:#ba6f38;}.cls-3{clip-path:url(#clip-path);}.cls-4{fill:#ed7d15;}.cls-5{opacity:0.25;fill:url(#linear-gradient);}.cls-6{fill:#ac5d12;}.cls-7{clip-path:url(#clip-path-2);}.cls-8{fill:#36a85d;}.cls-9{fill:#e6b35a;}.cls-10{fill:#fff;}.cls-11{opacity:0.94;}</style><clipPath
       id="clip-path"><polygon
         id="polygon22189"
         points="369.5,7.4 369.5,7.4 728.2,214.5 728.2,636.6 369.5,845 2.8,636.6 2.8,214.5 "
         class="cls-1"
         style="fill:none" /></clipPath></defs><sodipodi:namedview
     id="base"
     bordercolor="#666666"
     inkscape:pageshadow="2"
     inkscape:window-y="623"
     pagecolor="#ffffff"
     inkscape:window-height="1297"
     inkscape:window-maximized="0"
     inkscape:zoom="2.9205249"
     inkscape:window-x="1440"
     showgrid="false"
     borderopacity="1.0"
     inkscape:current-layer="layer1"
     inkscape:cx="82.861817"
     inkscape:cy="95.873177"
     inkscape:window-width="1888"
     inkscape:pageopacity="0.0"
     inkscape:document-units="px"
     fit-margin-top="0"
     fit-margin-left="0"
     fit-margin-right="0"
     fit-margin-bottom="0"
     units="cm"
     inkscape:pagecheckerboard="0"
     inkscape:showpageshadow="2"
     inkscape:deskcolor="#d1d1d1" /><g
     id="layer1"
     inkscape:label="Layer 1"
     inkscape:groupmode="layer"
     transform="translate(1791.8024,11.011019)"><path
       id="path20972"
       d="m -1751.9761,0.11992064 -15.6821,-9.07389964 -3.404,-1.968652 -3.404,1.968652 -15.6822,9.07389964 -1.654,0.95604036 v 24.002842 l 1.654,0.95604 15.8741,9.18704 3.2121,1.85551 3.2121,-1.85551 15.874,-9.18704 1.654,-0.95604 V 1.075961 Z"
       class="cls-6"
       inkscape:connector-curvature="0"
       style="fill:#ffffff;fill-opacity:1;stroke:#bfd7df;stroke-width:0.167415;stroke-opacity:1"
       sodipodi:nodetypes="ccccccccccccccc" /><text
       xml:space="preserve"
       style="font-style:normal;font-weight:normal;line-height:0%;font-family:sans-serif;letter-spacing:0px;word-spacing:0px;fill:#000000;fill-opacity:1;stroke:none;stroke-width:1px;stroke-linecap:butt;stroke-linejoin:miter;stroke-opacity:1"
       x="-1128.9001"
       y="-11.74138"
       id="text5476"><tspan
         sodipodi:role="line"
         id="tspan5478"
         x="-1128.9001"
         y="-11.74138"
         style="font-size:40px;line-height:1.25"> </tspan></text><g
       transform="matrix(0.72484839,1.2953625,-1.2953626,0.72484843,-671.26984,-964.12141)"
       id="g4147"
       style="fill:#004878;fill-opacity:1" /><path
       id="path22209"
       d="m -1751.9761,0.03153225 -15.6821,-9.07389955 -3.404,-1.9686517 -3.404,1.9686517 -15.6822,9.07389955 -1.654,0.95604048 V 24.990414 l 1.654,0.95604 15.8741,9.18704 3.2121,1.85551 3.2121,-1.85551 15.874,-9.18704 1.654,-0.95604 V 0.98757273 Z m 0,24.05941175 -19.0861,11.04255 -19.0862,-11.04255 V 2.0001839 l 19.0862,-11.0425512 v 0 l 19.0861,11.0425512 z"
       class="cls-6"
       inkscape:connector-curvature="0"
       style="fill:#00808c;fill-opacity:1;stroke-width:0.167415;stroke:#b7d539;stroke-opacity:1" /><path
       id="path22217"
       d="m -1775.3485,24.584403 0.051,-0.05091 h -0.017 z"
       class="cls-9"
       inkscape:connector-curvature="0"
       style="fill:#31859c;fill-opacity:1;stroke-width:0.167415" /><text
       inkscape:transform-center-y="-11.093648"
       inkscape:transform-center-x="-7.5419144"
       transform="matrix(0.86824171,-0.49401314,0.49510346,0.87004848,0,0)"
       id="text4366"
       y="-845.04083"
       x="-1556.5669"
       style="font-style:normal;font-variant:normal;font-weight:normal;font-stretch:normal;font-size:3.33333px;line-height:0%;font-family:Madani-SemiBold;-inkscape-font-specification:'Madani-SemiBold, Normal';font-variant-ligatures:normal;font-variant-caps:normal;font-variant-numeric:normal;font-variant-east-asian:normal;letter-spacing:0px;word-spacing:0px;fill:#31859c;fill-opacity:1;stroke:none;stroke-width:0.125561px;stroke-linecap:butt;stroke-linejoin:miter;stroke-opacity:1"
       xml:space="preserve"><tspan
         style="font-style:normal;font-variant:normal;font-weight:bold;font-stretch:normal;font-size:3.33333px;line-height:1.25;font-family:'Proxima Nova';-inkscape-font-specification:'Proxima Nova Bold';font-variant-ligatures:normal;font-variant-caps:normal;font-variant-numeric:normal;font-variant-east-asian:normal;fill:#404042;fill-opacity:1;stroke-width:0.125561px"
         y="-845.04083"
         x="-1556.5669"
         id="tspan4368"
         sodipodi:role="line">AAGIThemes</tspan></text><g
       inkscape:label="Layer 1"
       id="layer1-8"
       transform="matrix(-0.00366053,-0.00733598,0.00727302,-0.00372798,-1778.3964,25.540478)"
       style="fill:#00808c;fill-opacity:1"><g
         id="g3222"
         transform="matrix(-0.34429737,-0.93808694,0.93220501,-0.36454144,394.25422,911.47648)"
         style="fill:#00808c;fill-opacity:1"><path
           style="fill:#00808c;fill-opacity:1;fill-rule:nonzero;stroke:none"
           d="M 350.58187,393.71535 365.375,607.0802 h 325.46875 l 14.79313,-211.71079 c -34.84628,11.57319 -79.61403,-27.7389 -119.82375,-26.28629 -42.9865,1.55293 -88.86843,25.74233 -130.18686,32.88736 -37.73056,6.52459 -71.16424,-3.63672 -105.0444,-8.25513 z"
           id="path3001"
           inkscape:connector-curvature="0" /><path
           style="fill:#00808c;fill-opacity:1;fill-rule:nonzero;stroke:none"
           d="m 365.375,624.8302 v 10.375 h 325.46875 v -10.375 z"
           id="path2999" /><path
           style="fill:#00808c;fill-opacity:1;fill-rule:nonzero;stroke:none"
           d="m 365.375,638.1427 v 48.84375 l 89.83114,48.11189 c 40.20763,15.17711 35.0526,30.22449 37.10145,70.23411 l 7.62059,148.81368 c 2.97436,57.56767 58.67212,52.97147 57.64119,-0.10944 l 6.8523,-151.64212 c -1.85859,-40.01179 0.22442,-46.35048 33.14616,-63.98269 l 93.27592,-49.95668 v -50.3125 z"
           id="rect2985"
           inkscape:connector-curvature="0"
           sodipodi:nodetypes="ccccccccccc" /><path
           sodipodi:type="arc"
           style="fill:#00808c;fill-opacity:1;fill-rule:nonzero;stroke:none"
           id="path2995"
           sodipodi:cx="59.172523"
           sodipodi:cy="377.22482"
           sodipodi:rx="25.148323"
           sodipodi:ry="25.148323"
           transform="matrix(0.58825249,0,0,0.58825249,491.82708,459.15115)"
           sodipodi:start="0.070276071"
           sodipodi:end="0.066359593"
           sodipodi:open="true"
           sodipodi:arc-type="arc"
           d="M 84.258772,378.99069 A 25.148323,25.148323 0 0 1 57.431216,402.31279 25.148323,25.148323 0 0 1 34.082865,375.50808 25.148323,25.148323 0 0 1 60.8647,352.1335 25.148323,25.148323 0 0 1 84.265495,378.89243" /></g></g><g
       id="g11"
       transform="matrix(0.1875,0,0,0.1875,-1828.6111,-70.831816)">
	<path
   class="st0"
   d="m 223.63,453.49 -12.65,-11.14 c -3.85,-3.39 -5.14,-8.86 -3.23,-13.61 l 3.56,-9.17 12.65,11.14 c 3.85,3.39 5.14,8.86 3.23,13.61 z m -10.73,-27.43 -1.58,4.08 c -1.32,3.27 -0.43,7.01 2.2,9.33 l 8.53,7.52 1.58,-4.08 c 1.32,-3.27 0.43,-7.01 -2.2,-9.33 z"
   id="path1" />
	<path
   class="st0"
   d="m 247.3,407.25 -3.65,-13.42 c -0.78,-3.77 0.95,-7.58 4.3,-9.49 l 10.47,-6.17 3.74,11.63 c 1.21,3.66 -0.06,7.64 -3.16,9.92 l -0.1,0.07 z m 0.03,-14.24 2.26,8.27 7.21,-4.64 c 1.74,-1.31 2.45,-3.58 1.76,-5.67 v -0.02 l -2.29,-7.14 -6.43,3.78 c -1.93,1.12 -2.93,3.28 -2.51,5.42 z"
   id="path2" />
	<path
   class="st0"
   d="m 259.05,436.75 c -0.04,0 -0.09,0 -0.13,0 l -16.85,-0.18 3.5,-9.22 c 1.75,-4.79 6.34,-7.99 11.5,-7.93 l 16.85,0.18 -3.5,9.22 c -1.74,4.74 -6.3,7.93 -11.37,7.93 z m -11.46,-3.96 11.37,0.12 c 3.48,-0.01 6.67,-2.15 7.87,-5.44 l 1.56,-4.12 -11.37,-0.12 c -3.49,-0.07 -6.67,2.15 -7.87,5.44 z"
   id="path3" />
	<path
   class="st0"
   d="m 236.01,421.26 -12.65,-11.14 c -3.85,-3.39 -5.14,-8.86 -3.23,-13.61 l 3.56,-9.17 12.65,11.14 c 3.85,3.39 5.14,8.86 3.23,13.61 z m -10.12,-14.01 8.53,7.52 1.58,-4.08 c 1.32,-3.27 0.43,-7.01 -2.2,-9.33 l -8.53,-7.52 -1.59,4.08 c -1.31,3.27 -0.42,7.01 2.21,9.33 z"
   id="path4" />
	<path
   class="st1"
   d="m 239.87,432.22 v 0 0 L 222.08,416.1 c 0.2,-0.65 0.27,-1.34 0.16,-2.06 -0.4,-2.49 -2.74,-4.18 -5.23,-3.78 -2.49,0.4 -4.18,2.74 -3.78,5.23 0.4,2.49 2.74,4.18 5.23,3.78 0.23,-0.04 0.45,-0.11 0.66,-0.18 l 15.93,14.44 -10.71,27.9 h 4.32 z"
   id="path5" />
	<path
   class="st1"
   d="m 275.54,408.94 c -1.58,-1.96 -4.46,-2.27 -6.42,-0.69 -0.48,0.39 -0.86,0.86 -1.14,1.37 l -23.78,0.08 -1.04,2.72 h -0.01 l -4.16,10.85 3.18,2.97 4.73,-12.33 21.09,-0.07 c 0.14,0.28 0.23,0.58 0.43,0.84 1.58,1.96 4.46,2.27 6.42,0.69 1.98,-1.6 2.29,-4.47 0.7,-6.43"
   id="path6" />
	<path
   class="st0"
   d="m 251.07,457.68 c -0.04,0 -0.09,0 -0.13,0 l -16.85,-0.18 3.5,-9.22 c 1.75,-4.79 6.37,-8.02 11.5,-7.93 l 16.85,0.19 -3.5,9.22 c -1.74,4.74 -6.3,7.92 -11.37,7.92 z m -11.47,-3.95 11.37,0.12 c 0.03,0 0.06,0 0.09,0 3.47,0 6.59,-2.18 7.78,-5.44 l 1.56,-4.12 -11.37,-0.12 c -0.03,0 -0.06,0 -0.09,0 -3.47,0 -6.59,2.18 -7.78,5.44 z"
   id="path7" />
	<path
   class="st2"
   d="m 381.07,463.99 c 0.21,0.06 0.6,0.1 0.82,0.1 1.03,-0.01 1.81,-0.41 2.27,-1.53 l 3.51,-8.48 h -1.43 l -2.23,5.59 -2.23,-5.59 h -1.41 l 2.93,7.2 -0.41,0.94 c -0.22,0.53 -0.55,0.69 -1.03,0.69 -0.18,0 -0.43,-0.04 -0.59,-0.12 z m -3.3,-2.79 v -4.96 c 0.31,-0.53 1.21,-1.03 1.87,-1.03 0.18,0 0.33,0.02 0.46,0.04 v -1.34 c -0.94,0 -1.79,0.54 -2.33,1.25 v -1.09 h -1.33 v 7.12 h 1.33 z m -3.88,0.17 c 0.69,0 1.11,-0.19 1.39,-0.46 l -0.34,-1 c -0.13,0.15 -0.41,0.28 -0.72,0.28 -0.46,0 -0.69,-0.37 -0.69,-0.87 v -4.09 h 1.45 v -1.16 h -1.45 v -1.95 h -1.33 v 1.95 h -1.18 v 1.16 h 1.18 v 4.38 c -0.01,1.13 0.57,1.76 1.69,1.76 m -9.48,-1.1 c 0.72,0.74 1.77,1.1 2.96,1.1 1.87,0 2.88,-0.96 2.88,-2.18 0,-1.64 -1.47,-1.98 -2.71,-2.26 -0.89,-0.21 -1.65,-0.41 -1.65,-1.03 0,-0.57 0.56,-0.93 1.46,-0.93 0.9,0 1.7,0.37 2.11,0.87 l 0.59,-0.93 c -0.6,-0.57 -1.49,-1.02 -2.71,-1.02 -1.74,0 -2.71,0.97 -2.71,2.11 0,1.53 1.41,1.86 2.62,2.14 0.92,0.21 1.73,0.44 1.73,1.15 0,0.6 -0.53,1.02 -1.54,1.02 -0.96,0 -1.9,-0.49 -2.39,-1.02 z m -1.5,0.93 v -7.12 h -1.33 v 5.12 c -0.4,0.53 -1.15,1 -1.98,1 -0.92,0 -1.51,-0.35 -1.51,-1.53 v -4.59 h -1.33 v 5.03 c 0,1.5 0.75,2.27 2.27,2.27 1.09,0 1.99,-0.56 2.54,-1.15 v 0.97 z m -9.58,-2.04 c -0.37,0.58 -1.17,1.03 -1.98,1.03 -1.33,0 -2.15,-1.08 -2.15,-2.55 0,-1.49 0.83,-2.57 2.15,-2.57 0.81,0 1.61,0.47 1.98,1.05 z m 1.32,2.04 v -9.84 h -1.32 v 3.74 c -0.58,-0.77 -1.42,-1.21 -2.33,-1.21 -1.86,0 -3.19,1.46 -3.19,3.74 0,2.33 1.33,3.73 3.19,3.73 0.94,0 1.8,-0.49 2.33,-1.19 v 1.02 h 1.32 z m -8.51,0 v -5 c 0,-1.5 -0.78,-2.3 -2.28,-2.3 -1.11,0 -2.05,0.6 -2.52,1.18 v -1 h -1.32 v 7.12 h 1.32 v -5.09 c 0.38,-0.53 1.14,-1.03 1.96,-1.03 0.91,0 1.52,0.38 1.52,1.56 v 4.56 z m -8.3,-9.84 h -1.47 v 9.84 h 1.47 z m -12.83,8.91 c 0.72,0.74 1.77,1.1 2.96,1.1 1.87,0 2.88,-0.96 2.88,-2.18 0,-1.64 -1.47,-1.98 -2.71,-2.26 -0.89,-0.21 -1.65,-0.41 -1.65,-1.03 0,-0.57 0.56,-0.93 1.46,-0.93 0.9,0 1.7,0.37 2.11,0.87 l 0.59,-0.93 c -0.6,-0.57 -1.49,-1.02 -2.71,-1.02 -1.74,0 -2.71,0.97 -2.71,2.11 0,1.53 1.41,1.86 2.62,2.14 0.92,0.21 1.73,0.44 1.73,1.15 0,0.6 -0.53,1.02 -1.53,1.02 -0.96,0 -1.9,-0.49 -2.39,-1.02 z m -1.49,0.93 v -5 c 0,-1.5 -0.78,-2.3 -2.29,-2.3 -1.11,0 -2.05,0.6 -2.52,1.18 v -1 h -1.33 v 7.12 h 1.33 v -5.09 c 0.38,-0.53 1.14,-1.03 1.96,-1.03 0.92,0 1.52,0.38 1.52,1.56 v 4.56 z m -8.25,-7.12 h -1.33 v 7.12 h 1.33 z m -0.67,-1.2 c 0.47,0 0.86,-0.37 0.86,-0.84 0,-0.47 -0.38,-0.85 -0.86,-0.85 -0.46,0 -0.85,0.38 -0.85,0.85 -0.01,0.47 0.39,0.84 0.85,0.84 m -4.1,6.76 c -0.4,0.53 -1.09,0.81 -1.83,0.81 -0.96,0 -1.64,-0.58 -1.64,-1.42 0,-0.84 0.68,-1.42 1.64,-1.42 0.74,0 1.43,0.28 1.83,0.81 z m 1.32,1.56 v -4.81 c 0,-1.82 -1.31,-2.49 -2.86,-2.49 -1.15,0 -2.12,0.38 -2.92,1.16 l 0.57,0.92 c 0.63,-0.64 1.33,-0.95 2.14,-0.95 1.02,0 1.74,0.53 1.74,1.42 v 1.18 c -0.55,-0.63 -1.37,-0.94 -2.33,-0.94 -1.2,0 -2.48,0.71 -2.48,2.33 0,1.57 1.3,2.36 2.48,2.36 0.96,0 1.77,-0.34 2.33,-0.96 v 0.78 z m -9.38,0 v -4.96 c 0.31,-0.53 1.21,-1.03 1.87,-1.03 0.18,0 0.32,0.02 0.46,0.04 v -1.34 c -0.94,0 -1.79,0.54 -2.33,1.25 v -1.09 h -1.33 v 7.12 h 1.33 z m -12.25,-4.91 c 0,3.07 2.29,5.1 5.1,5.1 1.67,0 3.02,-0.69 3.97,-1.74 v -3.61 h -4.63 v 1.3 h 3.16 v 1.77 c -0.47,0.44 -1.4,0.97 -2.49,0.97 -2.05,0 -3.59,-1.59 -3.59,-3.79 0,-2.21 1.54,-3.78 3.59,-3.78 1.15,0 2.14,0.58 2.7,1.33 l 1.19,-0.69 c -0.83,-1.11 -2.05,-1.95 -3.89,-1.95 -2.83,0 -5.11,2.02 -5.11,5.09"
   id="path8" />
	<path
   class="st2"
   d="m 378.4,443.56 v -5 c 0,-1.5 -0.78,-2.3 -2.29,-2.3 -1.11,0 -2.05,0.6 -2.52,1.18 v -1 h -1.33 v 7.12 h 1.33 v -5.09 c 0.38,-0.53 1.14,-1.03 1.96,-1.03 0.92,0 1.52,0.38 1.52,1.56 v 4.56 z M 368.82,442 c -0.4,0.53 -1.09,0.81 -1.83,0.81 -0.96,0 -1.64,-0.58 -1.64,-1.42 0,-0.84 0.68,-1.42 1.64,-1.42 0.74,0 1.43,0.28 1.83,0.81 z m 1.32,1.56 v -4.81 c 0,-1.82 -1.31,-2.49 -2.86,-2.49 -1.15,0 -2.12,0.38 -2.92,1.16 l 0.57,0.92 c 0.63,-0.64 1.33,-0.95 2.14,-0.95 1.02,0 1.74,0.53 1.74,1.42 v 1.18 c -0.55,-0.63 -1.37,-0.94 -2.33,-0.94 -1.2,0 -2.48,0.71 -2.48,2.33 0,1.56 1.3,2.36 2.48,2.36 0.96,0 1.77,-0.34 2.33,-0.96 v 0.78 z m -7.83,-7.12 h -1.33 v 7.12 h 1.33 z m -0.68,-1.2 c 0.47,0 0.85,-0.37 0.85,-0.84 0,-0.47 -0.38,-0.86 -0.85,-0.86 -0.46,0 -0.85,0.38 -0.85,0.86 0,0.47 0.4,0.84 0.85,0.84 m -2.76,-1.52 h -1.33 v 9.84 h 1.33 z M 354.1,442 c -0.4,0.53 -1.09,0.81 -1.83,0.81 -0.96,0 -1.64,-0.58 -1.64,-1.42 0,-0.84 0.68,-1.42 1.64,-1.42 0.74,0 1.43,0.28 1.83,0.81 z m 1.32,1.56 v -4.81 c 0,-1.82 -1.31,-2.49 -2.86,-2.49 -1.15,0 -2.12,0.38 -2.92,1.16 l 0.57,0.92 c 0.63,-0.64 1.33,-0.95 2.14,-0.95 1.02,0 1.74,0.53 1.74,1.42 v 1.18 c -0.55,-0.63 -1.37,-0.94 -2.33,-0.94 -1.2,0 -2.48,0.71 -2.48,2.33 0,1.56 1.3,2.36 2.48,2.36 0.96,0 1.77,-0.34 2.33,-0.96 v 0.78 z m -9.38,0 v -4.96 c 0.31,-0.53 1.21,-1.03 1.87,-1.03 0.18,0 0.32,0.01 0.46,0.04 v -1.34 c -0.94,0 -1.79,0.55 -2.33,1.25 v -1.09 h -1.33 v 7.12 h 1.33 z m -3.88,0.17 c 0.69,0 1.11,-0.19 1.39,-0.46 l -0.34,-1 c -0.13,0.15 -0.41,0.28 -0.72,0.28 -0.46,0 -0.69,-0.37 -0.69,-0.87 v -4.09 h 1.45 v -1.16 h -1.45 v -1.95 h -1.32 v 1.95 h -1.18 v 1.16 h 1.18 v 4.38 c -0.01,1.13 0.56,1.76 1.68,1.76 m -9.48,-1.1 c 0.72,0.74 1.77,1.1 2.96,1.1 1.87,0 2.88,-0.96 2.88,-2.18 0,-1.64 -1.47,-1.98 -2.71,-2.26 -0.89,-0.21 -1.65,-0.41 -1.65,-1.03 0,-0.58 0.56,-0.93 1.46,-0.93 0.9,0 1.7,0.37 2.11,0.87 l 0.59,-0.93 c -0.6,-0.58 -1.49,-1.02 -2.71,-1.02 -1.74,0 -2.71,0.97 -2.71,2.11 0,1.54 1.41,1.86 2.62,2.14 0.91,0.21 1.73,0.44 1.73,1.15 0,0.61 -0.53,1.02 -1.54,1.02 -0.96,0 -1.9,-0.49 -2.39,-1.02 z m -1.49,0.93 v -7.12 h -1.33 v 5.12 c -0.4,0.53 -1.15,1 -1.98,1 -0.92,0 -1.51,-0.35 -1.51,-1.53 v -4.59 h -1.33 v 5.03 c 0,1.5 0.75,2.27 2.27,2.27 1.09,0 1.99,-0.56 2.54,-1.15 v 0.97 z m -9.96,-3.35 h -3.97 l 1.98,-5.21 z m 2.85,3.35 -3.91,-9.84 h -1.84 l -3.91,9.84 h 1.62 l 0.8,-2.04 h 4.82 l 0.8,2.04 z m -17.61,-6.21 c 1.5,0 2.14,1.18 2.17,2.13 h -4.35 c 0.07,-0.98 0.75,-2.13 2.18,-2.13 m -3.57,2.64 c 0,2.24 1.56,3.75 3.69,3.75 1.15,0 2.15,-0.37 2.86,-1.06 l -0.62,-0.87 c -0.53,0.55 -1.36,0.84 -2.11,0.84 -1.43,0 -2.32,-1 -2.42,-2.21 h 5.64 v -0.32 c 0,-2.18 -1.33,-3.85 -3.46,-3.85 -2.09,-0.01 -3.58,1.65 -3.58,3.72 m -1.68,3.57 v -5.03 c 0,-1.5 -0.77,-2.27 -2.29,-2.27 -1.09,0 -2.05,0.6 -2.52,1.18 v -3.71 h -1.33 v 9.84 h 1.33 v -5.09 c 0.38,-0.53 1.14,-1.03 1.96,-1.03 0.92,0 1.52,0.35 1.52,1.53 v 4.59 h 1.33 z m -8.69,0.17 c 0.69,0 1.11,-0.19 1.39,-0.46 l -0.34,-1 c -0.13,0.15 -0.41,0.28 -0.72,0.28 -0.46,0 -0.69,-0.37 -0.69,-0.87 v -4.09 h 1.45 v -1.16 h -1.45 v -1.95 h -1.32 v 1.95 h -1.18 v 1.16 h 1.18 v 4.38 c -0.02,1.13 0.56,1.76 1.68,1.76"
   id="path9" />
	<path
   class="st2"
   d="m 367.35,425.92 v -4.96 c 0.31,-0.53 1.21,-1.03 1.87,-1.03 0.18,0 0.33,0.02 0.46,0.05 v -1.34 c -0.94,0 -1.78,0.54 -2.33,1.25 v -1.09 h -1.33 v 7.12 z m -6.6,-1 c -1.42,0 -2.21,-1.21 -2.21,-2.57 0,-1.34 0.8,-2.55 2.21,-2.55 1.43,0 2.21,1.21 2.21,2.55 0,1.36 -0.78,2.57 -2.21,2.57 m 0,1.17 c 2.23,0 3.6,-1.68 3.6,-3.75 0,-2.05 -1.37,-3.73 -3.6,-3.73 -2.21,0 -3.6,1.68 -3.6,3.73 0,2.07 1.38,3.75 3.6,3.75 m -4.43,-6.13 v -1.16 h -1.44 v -0.47 c 0,-0.86 0.4,-1.3 1.06,-1.3 0.24,0 0.46,0.06 0.63,0.16 l 0.31,-0.99 c -0.31,-0.18 -0.71,-0.27 -1.17,-0.27 -1.27,0 -2.17,0.85 -2.17,2.39 v 0.47 h -1.18 v 1.16 h 1.18 v 5.96 h 1.33 v -5.96 h 1.45 z m -14.42,5.03 c 0.72,0.74 1.77,1.1 2.96,1.1 1.87,0 2.88,-0.96 2.88,-2.18 0,-1.64 -1.47,-1.98 -2.71,-2.26 -0.89,-0.21 -1.65,-0.41 -1.65,-1.03 0,-0.58 0.56,-0.93 1.46,-0.93 0.9,0 1.7,0.37 2.11,0.87 l 0.59,-0.93 c -0.6,-0.57 -1.49,-1.02 -2.71,-1.02 -1.74,0 -2.71,0.97 -2.71,2.11 0,1.54 1.41,1.86 2.62,2.14 0.91,0.21 1.73,0.44 1.73,1.15 0,0.6 -0.53,1.02 -1.53,1.02 -0.96,0 -1.9,-0.49 -2.39,-1.02 z m -7.14,-2.64 c 0,2.14 1.47,3.75 3.63,3.75 1.34,0 2.15,-0.56 2.67,-1.25 l -0.89,-0.81 c -0.43,0.59 -1,0.89 -1.72,0.89 -1.4,0 -2.3,-1.09 -2.3,-2.57 0,-1.48 0.9,-2.55 2.3,-2.55 0.72,0 1.3,0.28 1.72,0.88 l 0.89,-0.81 c -0.52,-0.69 -1.33,-1.25 -2.67,-1.25 -2.16,-0.01 -3.63,1.58 -3.63,3.72 m -1.67,-3.55 h -1.33 v 7.12 h 1.33 z m -0.68,-1.2 c 0.47,0 0.86,-0.37 0.86,-0.84 0,-0.47 -0.38,-0.85 -0.86,-0.85 -0.46,0 -0.85,0.38 -0.85,0.85 0,0.47 0.4,0.84 0.85,0.84 m -3.2,8.49 c 0.69,0 1.11,-0.19 1.39,-0.46 l -0.34,-1 c -0.13,0.15 -0.41,0.28 -0.72,0.28 -0.46,0 -0.69,-0.37 -0.69,-0.87 v -4.09 h 1.45 v -1.16 h -1.45 v -1.95 h -1.33 v 1.95 h -1.18 v 1.16 h 1.18 v 4.38 c 0,1.13 0.57,1.76 1.69,1.76 m -9.64,2.62 c 0.21,0.06 0.6,0.1 0.83,0.1 1.03,-0.02 1.81,-0.41 2.27,-1.53 l 3.51,-8.48 h -1.43 l -2.23,5.59 -2.23,-5.59 h -1.42 l 2.94,7.2 -0.41,0.94 c -0.22,0.53 -0.55,0.69 -1.03,0.69 -0.18,0 -0.43,-0.04 -0.59,-0.12 z m -1.76,-12.63 h -1.33 v 9.84 h 1.33 z m -4.78,8.28 c -0.4,0.53 -1.09,0.81 -1.83,0.81 -0.96,0 -1.64,-0.58 -1.64,-1.42 0,-0.84 0.68,-1.42 1.64,-1.42 0.74,0 1.43,0.28 1.83,0.81 z m 1.33,1.56 v -4.81 c 0,-1.82 -1.31,-2.49 -2.86,-2.49 -1.15,0 -2.12,0.38 -2.92,1.16 l 0.57,0.92 c 0.63,-0.64 1.33,-0.95 2.14,-0.95 1.02,0 1.74,0.53 1.74,1.42 v 1.18 c -0.55,-0.63 -1.37,-0.94 -2.33,-0.94 -1.19,0 -2.48,0.71 -2.48,2.33 0,1.57 1.3,2.36 2.48,2.36 0.96,0 1.77,-0.34 2.33,-0.96 v 0.78 z m -7.83,0 v -5 c 0,-1.5 -0.78,-2.3 -2.29,-2.3 -1.11,0 -2.05,0.6 -2.52,1.18 v -1 h -1.33 v 7.12 h 1.33 v -5.09 c 0.38,-0.53 1.14,-1.03 1.96,-1.03 0.92,0 1.52,0.38 1.52,1.56 v 4.56 z m -10.14,-3.35 h -3.97 l 1.98,-5.21 z m 2.85,3.35 -3.91,-9.84 h -1.84 l -3.91,9.84 h 1.62 l 0.8,-2.04 h 4.82 l 0.8,2.04 z"
   id="path10" />
	<path
   class="st2"
   d="m 387.83,378.26 h -4.5 v 30.02 h 4.5 z m -37.94,15.03 c 0,9.36 6.98,15.57 15.57,15.57 5.08,0 9.23,-2.11 12.1,-5.31 v -11.03 h -14.13 v 3.96 h 9.63 v 5.4 c -1.44,1.35 -4.27,2.97 -7.6,2.97 -6.26,0 -10.93,-4.86 -10.93,-11.57 0,-6.75 4.68,-11.52 10.93,-11.52 3.51,0 6.52,1.75 8.23,4.05 l 3.65,-2.11 c -2.52,-3.38 -6.26,-5.94 -11.88,-5.94 -8.59,0.01 -15.57,6.17 -15.57,15.53 m -9.4,4.77 h -12.1 l 6.03,-15.88 z m 8.68,10.22 -11.92,-30.02 h -5.62 l -11.92,30.02 h 4.95 l 2.43,-6.21 h 14.71 l 2.43,6.21 z m -38.65,-10.22 h -12.11 l 6.03,-15.88 z m 8.69,10.22 -11.92,-30.02 h -5.62 l -11.93,30.02 h 4.95 l 2.43,-6.21 h 14.71 l 2.43,6.21 z"
   id="path11" />
</g><path
       d="m -1780.1276,22.126429 c -0.1562,0.156213 -0.1562,0.407632 -0.1562,0.910459 v 3.2 c 0,0.502826 0,0.75424 0.1562,0.910453 0.1562,0.156213 0.4076,0.156213 0.9105,0.156213 0.5028,0 0.7542,0 0.9104,-0.156213 0.1562,-0.156213 0.1562,-0.407627 0.1562,-0.910453 v -3.2 c 0,-0.502827 0,-0.754246 -0.1562,-0.910459 -0.1562,-0.156208 -0.4076,-0.156208 -0.9104,-0.156208 -0.5029,0 -0.7543,0 -0.9105,0.156208 z"
       fill="#1c274c"
       id="path1-5"
       style="fill:#00808c;fill-opacity:1;stroke-width:0.533333" /><path
       opacity="0.4"
       d="m -1772.6609,18.393096 c -0.1562,0.156213 -0.1562,0.407626 -0.1562,0.910458 v 6.933334 c 0,0.502826 0,0.75424 0.1562,0.910453 0.1562,0.156213 0.4076,0.156213 0.9104,0.156213 0.5029,0 0.7543,0 0.9105,-0.156213 0.1562,-0.156213 0.1562,-0.407627 0.1562,-0.910453 v -6.933334 c 0,-0.502832 0,-0.754245 -0.1562,-0.910458 -0.1562,-0.156208 -0.4076,-0.156208 -0.9105,-0.156208 -0.5028,0 -0.7542,0 -0.9104,0.156208 z"
       fill="#1c274c"
       id="path2-8"
       style="fill:#648fd2;fill-opacity:1;stroke-width:0.533333" /><path
       opacity="0.7"
       d="m -1776.5505,20.903554 c 0,-0.502832 0,-0.754245 0.1562,-0.910458 0.1563,-0.156208 0.4077,-0.156208 0.9105,-0.156208 0.5028,0 0.7542,0 0.9105,0.156208 0.1562,0.156213 0.1562,0.407626 0.1562,0.910458 v 5.333334 c 0,0.502826 0,0.75424 -0.1562,0.910453 -0.1563,0.156213 -0.4077,0.156213 -0.9105,0.156213 -0.5028,0 -0.7542,0 -0.9105,-0.156213 -0.1562,-0.156213 -0.1562,-0.407627 -0.1562,-0.910453 z"
       fill="#1c274c"
       id="path3-1"
       style="fill:#31859c;fill-opacity:1;stroke-width:0.533333" /><path
       d="m -1780.2838,28.503554 c -0.2209,0 -0.4,0.179094 -0.4,0.4 0,0.220907 0.1791,0.4 0.4,0.4 h 9.6 c 0.2209,0 0.4,-0.179093 0.4,-0.4 0,-0.220906 -0.1791,-0.4 -0.4,-0.4 z"
       fill="#1c274c"
       id="path4-4"
       style="fill:#404042;fill-opacity:1;stroke-width:0.533333" /></g><metadata
     id="metadata207"><rdf:RDF><cc:Work><dc:format>image/svg+xml</dc:format><dc:type
           rdf:resource="http://purl.org/dc/dcmitype/StillImage" /><cc:license
           rdf:resource="http://creativecommons.org/publicdomain/zero/1.0/" /><dc:publisher><cc:Agent
             rdf:about="http://openclipart.org/"><dc:title /></cc:Agent></dc:publisher><dc:description>R AAGIThemes package hex sticker SVG file source</dc:description><dc:creator><cc:Agent><dc:title>adamhsparks</dc:title></cc:Agent></dc:creator><dc:subject><rdf:Bag><rdf:li>R</rdf:li><rdf:li>hexsticker</rdf:li></rdf:Bag></dc:subject><dc:rights><cc:Agent><dc:title>CC0</dc:title></cc:Agent></dc:rights><dc:title>AAGIThemes</dc:title></cc:Work><cc:License
         rdf:about="http://creativecommons.org/publicdomain/zero/1.0/"><cc:permits
           rdf:resource="http://creativecommons.org/ns#Reproduction" /><cc:permits
           rdf:resource="http://creativecommons.org/ns#Distribution" /><cc:permits
           rdf:resource="http://creativecommons.org/ns#DerivativeWorks" /></cc:License></rdf:RDF></metadata><style
     type="text/css"
     id="style1">
	.st0{fill:#B7D539;}
	.st1{fill:#00808C;}
	.st2{fill:#FFFFFF;}
</style><style
     type="text/css"
     id="style1-3">
	.st0{fill:#B7D438;}
	.st1{fill:#00818D;}
	.st2{fill:#414042;}
</style></svg>
