<?xml version="1.0" encoding="UTF-8" standalone="no"?>
<!-- Created with Inkscape (http://www.inkscape.org/) -->

<svg
   id="svg2"
   sodipodi:docname="theme.aagi-hex.svg"
   viewBox="0 0 41.480312 48.000027"
   version="1.1"
   inkscape:version="1.3.2 (091e20e, 2023-11-25)"
   width="4.3899999cm"
   height="5.0800028cm"
   inkscape:export-filename="../../man/figures/logo.png"
   inkscape:export-xdpi="90.709999"
   inkscape:export-ydpi="90.709999"
   xml:space="preserve"
   xmlns:inkscape="http://www.inkscape.org/namespaces/inkscape"
   xmlns:sodipodi="http://sodipodi.sourceforge.net/DTD/sodipodi-0.dtd"
   xmlns="http://www.w3.org/2000/svg"
   xmlns:svg="http://www.w3.org/2000/svg"
   xmlns:rdf="http://www.w3.org/1999/02/22-rdf-syntax-ns#"
   xmlns:cc="http://creativecommons.org/ns#"
   xmlns:dc="http://purl.org/dc/elements/1.1/"><title
     id="title319">theme.aagi</title><defs
     id="defs4"><style
       id="style22186">.cls-1{fill:none;}.cls-2{fill:#ba6f38;}.cls-3{clip-path:url(#clip-path);}.cls-4{fill:#ed7d15;}.cls-5{opacity:0.25;fill:url(#linear-gradient);}.cls-6{fill:#ac5d12;}.cls-7{clip-path:url(#clip-path-2);}.cls-8{fill:#36a85d;}.cls-9{fill:#e6b35a;}.cls-10{fill:#fff;}.cls-11{opacity:0.94;}</style><clipPath
       id="clip-path"><polygon
         id="polygon22189"
         points="369.5,7.4 369.5,7.4 728.2,214.5 728.2,636.6 369.5,845 2.8,636.6 2.8,214.5 "
         class="cls-1"
         style="fill:none" /></clipPath></defs><sodipodi:namedview
     id="base"
     bordercolor="#666666"
     inkscape:pageshadow="2"
     inkscape:window-y="623"
     pagecolor="#ffffff"
     inkscape:window-height="1297"
     inkscape:window-maximized="0"
     inkscape:zoom="2.9205249"
     inkscape:window-x="1440"
     showgrid="false"
     borderopacity="1.0"
     inkscape:current-layer="layer1"
     inkscape:cx="83.033019"
     inkscape:cy="95.873177"
     inkscape:window-width="1888"
     inkscape:pageopacity="0.0"
     inkscape:document-units="px"
     fit-margin-top="0"
     fit-margin-left="0"
     fit-margin-right="0"
     fit-margin-bottom="0"
     units="cm"
     inkscape:pagecheckerboard="0"
     inkscape:showpageshadow="2"
     inkscape:deskcolor="#d1d1d1" /><g
     id="layer1"
     inkscape:label="Layer 1"
     inkscape:groupmode="layer"
     transform="translate(1791.8024,11.011019)"><path
       id="path20972"
       d="m -1751.9761,0.11992064 -15.6821,-9.07389964 -3.404,-1.968652 -3.404,1.968652 -15.6822,9.07389964 -1.654,0.95604036 v 24.002842 l 1.654,0.95604 15.8741,9.18704 3.2121,1.85551 3.2121,-1.85551 15.874,-9.18704 1.654,-0.95604 V 1.075961 Z"
       class="cls-6"
       inkscape:connector-curvature="0"
       style="fill:#ffffff;fill-opacity:1;stroke:#bfd7df;stroke-width:0.167415;stroke-opacity:1"
       sodipodi:nodetypes="ccccccccccccccc" /><text
       xml:space="preserve"
       style="font-style:normal;font-weight:normal;line-height:0%;font-family:sans-serif;letter-spacing:0px;word-spacing:0px;fill:#000000;fill-opacity:1;stroke:none;stroke-width:1px;stroke-linecap:butt;stroke-linejoin:miter;stroke-opacity:1"
       x="-1128.9001"
       y="-11.74138"
       id="text5476"><tspan
         sodipodi:role="line"
         id="tspan5478"
         x="-1128.9001"
         y="-11.74138"
         style="font-size:40px;line-height:1.25"> </tspan></text><g
       transform="matrix(0.72484839,1.2953625,-1.2953626,0.72484843,-671.26984,-964.12141)"
       id="g4147"
       style="fill:#004878;fill-opacity:1" /><path
       id="path22209"
       d="m -1751.9761,0.03153225 -15.6821,-9.07389955 -3.404,-1.9686517 -3.404,1.9686517 -15.6822,9.07389955 -1.654,0.95604048 V 24.990414 l 1.654,0.95604 15.8741,9.18704 3.2121,1.85551 3.2121,-1.85551 15.874,-9.18704 1.654,-0.95604 V 0.98757273 Z m 0,24.05941175 -19.0861,11.04255 -19.0862,-11.04255 V 2.0001839 l 19.0862,-11.0425512 v 0 l 19.0861,11.0425512 z"
       class="cls-6"
       inkscape:connector-curvature="0"
       style="fill:#00808c;fill-opacity:1;stroke-width:0.167415;stroke:#b7d539;stroke-opacity:1" /><path
       id="path22217"
       d="m -1773.3485,25.584403 0.051,-0.05091 h -0.017 z"
       class="cls-9"
       inkscape:connector-curvature="0"
       style="fill:#31859c;stroke-width:0.167415;fill-opacity:1" /><text
       inkscape:transform-center-y="-7.1059813"
       inkscape:transform-center-x="-16.079462"
       transform="matrix(0.99886331,0.01283534,-0.01280831,1.0009734,0,0)"
       id="text4366"
       y="47.205681"
       x="-1790.5789"
       style="font-style:normal;font-variant:normal;font-weight:normal;font-stretch:normal;font-size:6px;line-height:0%;font-family:Madani-SemiBold;-inkscape-font-specification:'Madani-SemiBold, Normal';font-variant-ligatures:normal;font-variant-caps:normal;font-variant-numeric:normal;font-variant-east-asian:normal;letter-spacing:0px;word-spacing:0px;fill:#31859c;fill-opacity:1;stroke:none;stroke-width:0.167415px;stroke-linecap:butt;stroke-linejoin:miter;stroke-opacity:1"
       xml:space="preserve"><tspan
         style="font-style:normal;font-variant:normal;font-weight:bold;font-stretch:normal;font-size:6px;line-height:1.25;font-family:'Proxima Nova';-inkscape-font-specification:'Proxima Nova Bold';font-variant-ligatures:normal;font-variant-caps:normal;font-variant-numeric:normal;font-variant-east-asian:normal;fill:#404042;fill-opacity:1;stroke-width:0.167415px"
         y="47.205681"
         x="-1790.5789"
         id="tspan4368"
         sodipodi:role="line">theme.aagi</tspan></text><g
       inkscape:label="Layer 1"
       id="layer1-8"
       transform="matrix(-0.0178219,-0.02507582,0.02373703,-0.01882707,-1766.9177,34.21633)"
       style="fill:#414042;fill-opacity:1"><g
         id="g3222"
         transform="translate(25.386441,-9.0252413)"
         style="fill:#414042;fill-opacity:1"><path
           style="fill:#414042;fill-opacity:1;fill-rule:nonzero;stroke:none"
           d="M 350.58187,393.71535 365.375,607.0802 h 325.46875 l 14.79313,-211.71079 c -34.84628,11.57319 -79.61403,-27.7389 -119.82375,-26.28629 -42.9865,1.55293 -88.86843,25.74233 -130.18686,32.88736 -37.73056,6.52459 -71.16424,-3.63672 -105.0444,-8.25513 z"
           id="path3001"
           inkscape:connector-curvature="0" /><path
           style="fill:#414042;fill-opacity:1;fill-rule:nonzero;stroke:none"
           d="m 365.375,624.8302 v 10.375 h 325.46875 v -10.375 z"
           id="path2999" /><path
           style="fill:#414042;fill-opacity:1;fill-rule:nonzero;stroke:none"
           d="m 365.375,638.1427 v 48.84375 l 89.83114,48.11189 c 40.20763,15.17711 35.0526,30.22449 37.10145,70.23411 l 7.62059,148.81368 c 2.97436,57.56767 58.67212,52.97147 57.64119,-0.10944 l 6.8523,-151.64212 c -1.85859,-40.01179 0.22442,-46.35048 33.14616,-63.98269 l 93.27592,-49.95668 v -50.3125 z"
           id="rect2985"
           inkscape:connector-curvature="0"
           sodipodi:nodetypes="ccccccccccc" /><path
           sodipodi:type="arc"
           style="fill:#414042;fill-opacity:1;fill-rule:nonzero;stroke:none"
           id="path2995"
           sodipodi:cx="59.172523"
           sodipodi:cy="377.22482"
           sodipodi:rx="25.148323"
           sodipodi:ry="25.148323"
           transform="matrix(0.58825249,0,0,0.58825249,491.82708,459.15115)"
           sodipodi:start="0.070276071"
           sodipodi:end="0.066359593"
           sodipodi:open="true"
           sodipodi:arc-type="arc"
           d="M 84.258772,378.99069 A 25.148323,25.148323 0 0 1 57.431216,402.31279 25.148323,25.148323 0 0 1 34.082865,375.50808 25.148323,25.148323 0 0 1 60.8647,352.1335 25.148323,25.148323 0 0 1 84.265495,378.89243" /></g></g><g
       id="g1"
       transform="translate(29.96365,29.521708)"><path
         class="st0"
         d="m -1814.1224,-11.97377 -3.1625,-2.785 c -0.9625,-0.8475 -1.285,-2.215 -0.8075,-3.4025 l 0.89,-2.2925 3.1625,2.785 c 0.9625,0.8475 1.285,2.215 0.8075,3.4025 z m -2.6825,-6.8575 -0.395,1.02 c -0.33,0.8175 -0.1075,1.7525 0.55,2.3325 l 2.1325,1.88 0.395,-1.02 c 0.33,-0.8175 0.1075,-1.7525 -0.55,-2.3325 z"
         id="path1"
         style="stroke-width:0.25" /><path
         class="st0"
         d="m -1808.2049,-23.53377 -0.9125,-3.355 c -0.195,-0.9425 0.2375,-1.895 1.075,-2.3725 l 2.6175,-1.5425 0.935,2.9075 c 0.3025,0.915 -0.015,1.91 -0.79,2.48 l -0.025,0.0175 z m 0.01,-3.56 0.565,2.0675 1.8025,-1.16 c 0.435,-0.3275 0.6125,-0.895 0.44,-1.4175 v -0.005 l -0.5725,-1.785 -1.6075,0.945 c -0.4825,0.28 -0.7325,0.82 -0.6275,1.355 z"
         id="path2"
         style="stroke-width:0.25" /><path
         class="st0"
         d="m -1805.2674,-16.15877 c -0.01,0 -0.023,0 -0.033,0 l -4.2125,-0.045 0.875,-2.305 c 0.4375,-1.1975 1.585,-1.9975 2.875,-1.9825 l 4.2125,0.045 -0.875,2.305 c -0.435,1.185 -1.575,1.9825 -2.8425,1.9825 z m -2.865,-0.99 2.8425,0.03 c 0.87,-0.0025 1.6675,-0.5375 1.9675,-1.36 l 0.39,-1.03 -2.8425,-0.03 c -0.8725,-0.0175 -1.6675,0.5375 -1.9675,1.36 z"
         id="path3"
         style="stroke-width:0.25" /><path
         class="st0"
         d="m -1811.0274,-20.03127 -3.1625,-2.785 c -0.9625,-0.8475 -1.285,-2.215 -0.8075,-3.4025 l 0.89,-2.2925 3.1625,2.785 c 0.9625,0.8475 1.285,2.215 0.8075,3.4025 z m -2.53,-3.5025 2.1325,1.88 0.395,-1.02 c 0.33,-0.8175 0.1075,-1.7525 -0.55,-2.3325 l -2.1325,-1.88 -0.3975,1.02 c -0.3275,0.8175 -0.105,1.7525 0.5525,2.3325 z"
         id="path4"
         style="stroke-width:0.25" /><path
         class="st1"
         d="m -1810.0624,-17.29127 v 0 0 l -4.4475,-4.03 c 0.05,-0.1625 0.068,-0.335 0.04,-0.515 -0.1,-0.6225 -0.685,-1.045 -1.3075,-0.945 -0.6225,0.1 -1.045,0.685 -0.945,1.3075 0.1,0.6225 0.685,1.045 1.3075,0.945 0.057,-0.01 0.1125,-0.0275 0.165,-0.045 l 3.9825,3.61 -2.6775,6.975 h 1.08 z"
         id="path5"
         style="stroke-width:0.25" /><path
         class="st1"
         d="m -1801.1449,-23.11127 c -0.395,-0.49 -1.115,-0.5675 -1.605,-0.1725 -0.12,0.0975 -0.215,0.215 -0.285,0.3425 l -5.945,0.02 -0.26,0.68 v 0 l -1.04,2.7125 0.795,0.7425 1.1825,-3.0825 5.2725,-0.0175 c 0.035,0.07 0.058,0.145 0.1075,0.21 0.395,0.49 1.115,0.5675 1.605,0.1725 0.495,-0.4 0.5725,-1.1175 0.175,-1.6075"
         id="path6"
         style="stroke-width:0.25" /><path
         class="st0"
         d="m -1807.2624,-10.92627 c -0.01,0 -0.023,0 -0.033,0 l -4.2125,-0.045 0.875,-2.305 c 0.4375,-1.1975 1.5925,-2.005 2.875,-1.9825 l 4.2125,0.0475 -0.875,2.305 c -0.435,1.185 -1.575,1.98 -2.8425,1.98 z m -2.8675,-0.9875 2.8425,0.03 c 0.01,0 0.015,0 0.023,0 0.8675,0 1.6475,-0.545 1.945,-1.36 l 0.39,-1.03 -2.8425,-0.03 c -0.01,0 -0.015,0 -0.023,0 -0.8675,0 -1.6475,0.545 -1.945,1.36 z"
         id="path7"
         style="stroke-width:0.25" /></g></g><metadata
     id="metadata207"><rdf:RDF><cc:Work><dc:format>image/svg+xml</dc:format><dc:type
           rdf:resource="http://purl.org/dc/dcmitype/StillImage" /><cc:license
           rdf:resource="http://creativecommons.org/publicdomain/zero/1.0/" /><dc:publisher><cc:Agent
             rdf:about="http://openclipart.org/"><dc:title /></cc:Agent></dc:publisher><dc:description>R theme.aagi package hex sticker SVG file source</dc:description><dc:creator><cc:Agent><dc:title>adamhsparks</dc:title></cc:Agent></dc:creator><dc:subject><rdf:Bag><rdf:li>R</rdf:li><rdf:li>hexsticker</rdf:li></rdf:Bag></dc:subject><dc:rights><cc:Agent><dc:title>CC0</dc:title></cc:Agent></dc:rights><dc:title>theme.aagi</dc:title></cc:Work><cc:License
         rdf:about="http://creativecommons.org/publicdomain/zero/1.0/"><cc:permits
           rdf:resource="http://creativecommons.org/ns#Reproduction" /><cc:permits
           rdf:resource="http://creativecommons.org/ns#Distribution" /><cc:permits
           rdf:resource="http://creativecommons.org/ns#DerivativeWorks" /></cc:License></rdf:RDF></metadata><style
     type="text/css"
     id="style1">
	.st0{fill:#B7D539;}
	.st1{fill:#00808C;}
	.st2{fill:#FFFFFF;}
</style></svg>
